<?xml version="1.0" encoding="utf-8"?>
<!-- Generator: Adobe Illustrator 16.0.0, SVG Export Plug-In . SVG Version: 6.00 Build 0)  -->
<!DOCTYPE svg PUBLIC "-//W3C//DTD SVG 1.1//EN" "http://www.w3.org/Graphics/SVG/1.1/DTD/svg11.dtd">
<svg version="1.1" xmlns="http://www.w3.org/2000/svg" xmlns:xlink="http://www.w3.org/1999/xlink" x="0px" y="0px"
	 width="30.721px" height="30.721px" viewBox="0 0 30.721 30.721" enable-background="new 0 0 30.721 30.721" xml:space="preserve">
<g id="Layer_1">
  <circle fill="none" stroke="currentColor" stroke-miterlimit="10" cx="15.234" cy="15.361" r="12.188"/>
	<path id="Selection__x23_1" d="M14.4,0.396c-1.167,0.494-1.896,1.161-2.069,2.483c-0.283,2.146,1.942,3.965,3.989,3.183
		C19.481,4.855,18.655-0.469,14.4,0.396z M6,3.996C4.834,4.49,4.101,5.158,3.928,6.48C3.645,8.628,5.873,10.445,7.92,9.663
		C11.081,8.455,10.256,3.13,6,3.996z M22.56,4.017c-1.057,0.559-1.771,1.207-1.894,2.463c-0.226,2.299,1.889,3.979,4.054,3.146
		c2.068-0.795,2.549-3.521,0.929-5C24.737,3.795,23.695,3.747,22.56,4.017z M2.4,12.658c-1.056,0.557-1.771,1.207-1.894,2.462
		C0.283,17.412,2.4,19.123,4.56,18.238c1.747-0.716,2.313-3.339,1.099-4.746C4.791,12.487,3.607,12.37,2.4,12.658z M25.92,12.658
		c-1.058,0.557-1.771,1.207-1.896,2.462c-0.223,2.299,1.891,3.977,4.056,3.146c2.067-0.794,2.549-3.521,0.929-4.999
		C28.096,12.434,27.055,12.386,25.92,12.658z M23.04,20.777c-3.472,1.375-2.021,6.537,1.92,5.551
		c2.05-0.519,2.427-3.341,1.316-4.678C25.43,20.631,24.245,20.563,23.04,20.777z M5.52,21.057c-3.413,1.826-1.313,6.813,2.399,5.369
		c2.009-0.78,2.091-3.564,0.894-4.76C7.929,20.782,6.65,20.784,5.52,21.057z M13.925,24.897c-2.899,1.601-1.675,5.847,1.676,5.559
		c2.74-0.235,3.328-3.497,1.864-4.959C16.526,24.554,15.123,24.605,13.925,24.897z"/>
	<line stroke="currentColor" stroke-miterlimit="10" x1="15.275" y1="5.871" x2="15.275" y2="8.709"/>
	<line stroke="currentColor" stroke-miterlimit="10" x1="15.275" y1="21.977" x2="15.275" y2="25.276"/>
	<line stroke="currentColor" stroke-miterlimit="10" x1="24.779" y1="15.385" x2="21.927" y2="15.385"/>
	<line stroke="currentColor" stroke-miterlimit="10" x1="8.645" y1="15.361" x2="5.99" y2="15.361"/>
	<circle fill="none" stroke="currentColor" stroke-miterlimit="10" cx="15.234" cy="15.361" r="6.693"/>
	<line stroke="currentColor" stroke-miterlimit="10" x1="8.5" y1="8.701" x2="10.508" y2="10.708"/>
	<line stroke="currentColor" stroke-miterlimit="10" x1="19.919" y1="20.119" x2="22.222" y2="22.422"/>
	<line stroke="currentColor" stroke-miterlimit="10" x1="21.948" y1="8.709" x2="19.925" y2="10.732"/>
	<line stroke="currentColor" stroke-miterlimit="10" x1="10.518" y1="20.104" x2="8.644" y2="21.977"/>
</g>
</svg>
