<?xml version="1.0" encoding="utf-8"?>
<!-- Generator: Adobe Illustrator 16.0.0, SVG Export Plug-In . SVG Version: 6.00 Build 0)  -->
<!DOCTYPE svg PUBLIC "-//W3C//DTD SVG 1.1//EN" "http://www.w3.org/Graphics/SVG/1.1/DTD/svg11.dtd">
<svg version="1.1" id="Layer_1" xmlns="http://www.w3.org/2000/svg" xmlns:xlink="http://www.w3.org/1999/xlink" x="0px" y="0px"
	 width="30.721px" height="30.721px" viewBox="0 0 30.721 30.721" enable-background="new 0 0 30.721 30.721" xml:space="preserve">
<path id="Selection__x23_1" d="M14.4,0.396c-1.167,0.494-1.897,1.161-2.07,2.483c-0.283,2.147,1.943,3.965,3.99,3.183
	C19.481,4.855,18.655-0.469,14.4,0.396z M6,3.996C4.834,4.49,4.101,5.158,3.928,6.48C3.645,8.628,5.873,10.445,7.92,9.663
	C11.081,8.455,10.256,3.13,6,3.996z M22.56,4.017c-1.057,0.558-1.771,1.207-1.894,2.463c-0.225,2.299,1.889,3.978,4.054,3.146
	c2.068-0.795,2.549-3.521,0.929-5C24.737,3.795,23.695,3.747,22.56,4.017z M2.4,12.658c-1.056,0.557-1.771,1.207-1.894,2.462
	C0.283,17.412,2.4,19.123,4.56,18.238c1.747-0.716,2.312-3.339,1.098-4.747C4.791,12.487,3.607,12.37,2.4,12.658z M25.92,12.658
	c-1.057,0.557-1.771,1.207-1.895,2.462c-0.223,2.299,1.89,3.977,4.055,3.146c2.068-0.794,2.549-3.521,0.929-4.999
	C28.096,12.434,27.055,12.386,25.92,12.658z M23.04,20.777c-3.471,1.375-2.021,6.537,1.92,5.55c2.05-0.518,2.427-3.34,1.317-4.677
	C25.43,20.631,24.245,20.563,23.04,20.777z M5.52,21.057c-3.413,1.826-1.314,6.813,2.399,5.369c2.009-0.78,2.091-3.564,0.894-4.76
	C7.929,20.782,6.65,20.784,5.52,21.057z M13.925,24.897c-2.899,1.6-1.675,5.846,1.676,5.558c2.74-0.235,3.328-3.497,1.864-4.959
	C16.526,24.554,15.123,24.605,13.925,24.897z"/>
<g transform="translate(0.000000,1280.000000) scale(0.100000,-0.100000)">
	<path d="M149.114,12727.74c-15.845-1.264-27.808-9.043-34.326-22.309c-1.157-2.344-2.236-5.025-2.236-5.494
		c0-0.121-0.063-0.219-0.122-0.219c-0.054,0-0.112-0.117-0.122-0.25c-0.02-0.277-0.093-0.541-0.239-0.898
		c-0.239-0.688-1.123-4.16-1.318-5.205c-0.039-0.277-0.107-0.674-0.156-0.854c-0.029-0.205-0.098-0.684-0.142-1.07
		c-0.039-0.41-0.112-0.771-0.142-0.82c-0.117-0.18-0.352-2.729-0.41-4.516c-0.015-0.381-0.068-0.699-0.142-0.699
		c-0.054,0-0.044-0.117,0.049-0.287c0.112-0.205,0.112-0.289,0-0.289c-0.103,0-0.127-0.082-0.02-0.277
		c0.088-0.143,0.112-0.299,0.068-0.332c-0.039-0.055-0.068-5.674-0.049-12.516l0.01-12.426l-0.381-0.289
		c-0.195-0.16-0.991-0.434-1.772-0.625c-2.305-0.521-3.848-1.068-5.264-1.84c-1.577-0.879-2.153-1.318-3.467-2.662
		c-2.974-2.998-4.824-8.086-5.103-13.984c-0.073-1.436-0.059-43.672,0.01-45.176c0.122-2.52,0.41-4.6,0.669-4.951
		c0.107-0.117,0.107-0.166-0.01-0.166c-0.103,0-0.137-0.068-0.059-0.176c0.059-0.098,0.107-0.244,0.127-0.322
		c0.015-0.078,0.161-0.498,0.332-0.898c0.151-0.42,0.249-0.781,0.186-0.781c-0.049,0-0.034-0.049,0.049-0.107
		c0.142-0.098,0.532-0.889,0.532-1.035c0-0.059,0.088-0.176,0.2-0.303c0.112-0.137,0.176-0.264,0.137-0.303
		c-0.044-0.039,0.083-0.244,0.288-0.459c0.181-0.215,0.361-0.43,0.361-0.449c0-0.215,1.206-1.709,1.758-2.178
		c0.347-0.303,0.488-0.469,0.337-0.332c-0.269,0.176-0.278,0.176-0.088-0.059c0.098-0.137,0.239-0.254,0.317-0.254
		c0.068,0,0.244-0.107,0.391-0.254c0.562-0.537,0.967-0.82,1.743-1.23c2.534-1.377,3.862-1.758,7.534-2.217
		c1.602-0.186,6.665-0.225,45.107-0.195c44.883,0,45.137,0,47.891,0.557c3.213,0.645,5.752,1.934,7.686,3.906
		c2.314,2.334,3.438,4.932,3.887,9.043c0.176,1.553,0.215,5.889,0.215,24.512c0,12.451-0.039,22.734-0.068,22.832
		c-0.039,0.117-0.088,0.908-0.146,1.768c-0.039,0.869-0.107,1.621-0.146,1.68c-0.029,0.049-0.088,0.381-0.137,0.732
		c-0.234,2.07-1.094,4.932-1.973,6.689c-0.43,0.83-1.563,2.549-1.992,3.057c-0.908,0.986-2.305,2.311-2.52,2.373
		c-0.195,0.035-0.537,0.43-0.537,0.635c0,0.098-0.078,0.045-0.127-0.107c-0.107-0.277-0.107-0.277-0.215,0.045
		c-0.068,0.205-0.176,0.307-0.303,0.258c-0.127-0.043-0.293,0.029-0.361,0.146c-0.088,0.117-0.283,0.195-0.371,0.195
		c-0.127,0-0.205,0.084-0.205,0.143c0,0.102-0.107,0.146-0.225,0.146c-0.107,0-0.205,0.078-0.205,0.141
		c0,0.088-0.137,0.152-0.303,0.152c-0.156,0-0.283,0.072-0.283,0.15c0,0.074-0.068,0.107-0.146,0.064
		c-0.068-0.035-0.137-0.01-0.137,0.072c0,0.098-0.078,0.117-0.146,0.074c-0.068-0.039-0.146-0.029-0.146,0.063
		c0,0.068-0.127,0.113-0.254,0.088c-0.137-0.02-0.43,0.055-0.645,0.162s-0.439,0.18-0.518,0.18c-0.049-0.01-0.215,0.025-0.352,0.055
		c-0.645,0.268-0.771,0.293-0.986,0.342c-0.146,0.023-0.4,0.107-0.596,0.18c-0.176,0.068-0.391,0.123-0.41,0.107
		c-0.068,0-0.264,0.107-0.449,0.279c-0.215,0.176-0.283,0.205-0.215,0.068c0.059-0.117-0.068-0.035-0.254,0.18l-0.391,0.41v12.242
		c0,6.738-0.039,12.758-0.068,13.393c-0.088,1.695-0.195,2.984-0.273,3.473c-0.029,0.352-0.371,2.441-0.566,3.682
		c-0.313,1.811-0.43,2.461-0.537,2.461c-0.039,0-0.078,0.141-0.059,0.336c0.02,0.172-0.02,0.391-0.088,0.455
		c-0.068,0.088-0.146,0.355-0.176,0.58c-0.127,0.664-0.205,0.986-0.361,1.396c-0.088,0.215-0.127,0.406-0.088,0.455
		c0.029,0.049-0.039,0.313-0.127,0.615c-0.166,0.297-0.254,0.668-0.254,0.84c0,0.238-0.02,0.264-0.127,0.102
		c-0.107-0.141-0.156-0.01-0.225,0.465c-0.078,0.381-0.186,0.684-0.234,0.684c-0.107,0-0.127,0.131-0.088,0.287
		c0.049,0.156,0,0.289-0.059,0.289c-0.088,0-0.127,0.098-0.127,0.215c0,0.121-0.068,0.215-0.156,0.215
		c-0.059,0-0.088,0.102-0.039,0.244c0.068,0.17,0.039,0.205-0.088,0.121c-0.146-0.088-0.166-0.029-0.078,0.215
		c0.078,0.254,0.039,0.299-0.088,0.215c-0.107-0.068-0.156-0.059-0.088,0.049c0.107,0.156-0.391,1.348-1.357,3.281
		c-0.342,0.641-0.811,1.539-1.045,2.021c-0.225,0.479-0.479,0.898-0.547,0.934c-0.059,0.049-0.234,0.365-0.42,0.713
		c-0.176,0.352-0.371,0.707-0.439,0.791c-0.43,0.531-1.221,1.635-1.523,2.162c-0.205,0.322-0.342,0.543-0.342,0.484
		c0-0.049-0.088-0.025-0.215,0.068c-0.107,0.107-0.166,0.244-0.127,0.297c0.039,0.055-0.107,0.273-0.303,0.475
		c-0.215,0.205-0.381,0.443-0.381,0.541c0,0.084-0.029,0.107-0.107,0.068c-0.029-0.059-0.176,0.029-0.283,0.182
		c-0.127,0.17-0.273,0.268-0.342,0.219s-0.146,0.035-0.146,0.182c0,0.156-0.283,0.561-0.645,0.912
		c-0.332,0.332-0.586,0.674-0.547,0.742c0.029,0.064-0.059,0.127-0.225,0.127c-0.156,0-0.322,0.127-0.371,0.283
		c-0.059,0.156-0.195,0.289-0.303,0.289c-0.127,0-0.195,0.098-0.195,0.219c0,0.107-0.107,0.215-0.234,0.215
		s-0.186,0.074-0.146,0.143c0.059,0.088,0,0.146-0.127,0.146s-0.234,0.068-0.234,0.156c0,0.068-0.029,0.121-0.088,0.082
		c-0.068-0.033-0.215,0.025-0.303,0.133c-0.107,0.121-0.127,0.205-0.088,0.205c0.068,0.014-0.039,0.121-0.254,0.229
		c-0.244,0.117-0.41,0.279-0.41,0.348c0,0.088-0.088,0.146-0.215,0.146s-0.215,0.072-0.215,0.141c0,0.084-0.068,0.143-0.146,0.143
		c-0.107,0-0.322,0.16-0.498,0.365c-0.195,0.201-0.381,0.361-0.449,0.361c-0.088,0-0.947,0.602-1.094,0.742
		c-0.029,0.035-0.264,0.182-0.518,0.313c-0.254,0.133-0.537,0.322-0.664,0.42c-0.244,0.24-0.84,0.602-2.07,1.227
		c-0.547,0.277-1.045,0.58-1.084,0.654c-0.049,0.068-0.137,0.127-0.176,0.127c-0.068,0-0.371,0.121-0.713,0.268
		c-5.41,2.281-9.6,3.301-15.493,3.77C156.423,12727.932,151.321,12727.916,149.114,12727.74z M155.974,12710.188
		c1.489-0.143,2.026-0.211,3.472-0.445c1.289-0.215,4.092-0.961,4.541-1.221c0.244-0.137,1.064-0.449,1.143-0.434
		c0.137,0.059,3.936-2.139,4.229-2.467c0.029-0.039,0.332-0.254,0.625-0.508c0.322-0.225,0.713-0.537,0.859-0.693
		c0.176-0.166,0.498-0.453,0.752-0.619c0.234-0.195,0.322-0.303,0.215-0.244c-0.127,0.049-0.02-0.094,0.234-0.328
		c0.391-0.342,1.416-1.547,2.275-2.656c0.117-0.189,0.371-0.576,0.537-0.854c0.156-0.279,0.41-0.699,0.547-0.934
		c0.293-0.443,1.064-1.83,1.094-1.963c0.02-0.029,0.146-0.322,0.293-0.645c0.137-0.313,0.244-0.625,0.244-0.678
		c-0.01-0.064,0.039-0.113,0.098-0.113c0.049,0,0.117-0.088,0.117-0.17c0.039-0.426,0.449-1.279,0.557-1.178
		c0.059,0.068,0.078,0.049,0-0.059c-0.029-0.102,0.107-0.727,0.342-1.396c0.234-0.674,0.391-1.264,0.342-1.299
		c-0.039-0.049,0-0.18,0.107-0.313c0.107-0.131,0.146-0.254,0.107-0.313c-0.068-0.049-0.039-0.186,0.049-0.293
		c0.127-0.141,0.107-0.186-0.029-0.186c-0.127-0.014-0.107-0.078,0.068-0.219c0.176-0.123,0.234-0.215,0.127-0.215
		c-0.127,0-0.127-0.098-0.02-0.391c0.088-0.234,0.176-0.537,0.215-0.693c0.107-0.713,0.381-2.936,0.391-3.33
		c0-0.225,0.098-0.479,0.186-0.527c0.088-0.068,0.088-0.117,0-0.117s-0.186-0.137-0.186-0.293s0.078-0.289,0.146-0.289
		s0.059-0.082-0.039-0.205c-0.117-0.15-0.117-0.219,0.02-0.283c0.146-0.078,0.146-0.098,0.02-0.17
		c-0.264-0.117-0.234-0.352,0.068-0.352c0.146,0,0.205-0.045,0.098-0.117c-0.234-0.146-0.273-3.209-0.039-3.209
		c0.107,0,0.127-0.063,0-0.186c-0.127-0.141-0.176-3.109-0.195-10.225l-0.039-10.023l-0.498-0.289
		c-0.488-0.287-0.811-0.287-24.824-0.346c-17.573-0.049-24.316-0.016-24.39,0.107c-0.059,0.082-0.313,0.156-0.576,0.156
		c-0.996,0-0.933-0.855-0.957,13.076c-0.01,6.924-0.01,12.611,0,12.646c0.024,0.049,0.044,0.469,0.073,0.932
		c0.063,0.953,0.146,1.699,0.381,3.043c0.083,0.482,0.171,1.02,0.186,1.225c0.034,0.211,0.083,0.475,0.146,0.586
		c0.054,0.137,0.112,0.4,0.142,0.605c0.015,0.182,0.073,0.396,0.117,0.469c0.039,0.098,0.127,0.41,0.19,0.719
		c0.112,0.615,0.674,2.309,1.021,3.066c0.117,0.254,0.205,0.492,0.205,0.566c0,0.479,2.715,5.141,3.569,6.127
		c0.513,0.615,2.852,2.9,3.457,3.404c1.587,1.348,5.752,3.461,7.319,3.74c0.107,0.01,0.41,0.107,0.679,0.199
		c0.84,0.279,3.96,0.748,5.537,0.846c0.811,0.049,1.494,0.098,1.504,0.107C152.883,12710.373,155.081,12710.285,155.974,12710.188z"
		/>
</g>
</svg>
